<svg id="Layer_1" data-name="Layer 1" xmlns="http://www.w3.org/2000/svg" viewBox="0 0 2000 848.2"><defs><style>.cls-1{fill:#404042;}.cls-2{fill:#81ac40;}</style></defs><path class="cls-1" d="M15.32,397.84c2-15.56,3.58-31.2,6.21-46.66,22-128.69,85.61-231,193.88-304.78,1.59-1.09,3.3-2,7-4.18,2.57,15.2,5.37,29.11,7.22,43.15C238.8,154.56,223.2,219,191,279.91c-20.39,38.54-42.22,76.32-62.35,115C102.56,445,86.36,497.78,87.79,555.13c1.6,64.11,18.88,123.39,52.63,177.9,1.54,2.48,2.92,5.07,4.32,7.63.08.14-.29.53-.81,1.4-1.9-1.71-3.85-3.22-5.5-5Q37.19,627.9,19.23,480.08c-1.19-9.7-2.6-19.37-3.91-29.06Z"/><path class="cls-1" d="M1984.68,80.73c-28.2,1.47-53.28,10.54-73.45,30.9-14.22,14.35-21.64,31.57-21.5,52.16.3,42.34.09,84.69.09,127v10h87.49v52.79H1890.4V614.86h-53.6v-13c0-143.45,1.52-286.92-.6-430.35C1835,93.2,1890,47.79,1943,34.07c13.55-3.51,27.77-4.42,41.68-6.52Z"/><path class="cls-2" d="M264.75,829.73c-16.91-8.68-29.44-20.6-40.36-34.13-35.31-43.75-60-92.83-73-147.68-19.36-81.75-8.07-159.53,30.78-233.47,19.05-36.26,39.44-71.81,58.79-107.92,21.15-39.46,38.06-80.47,44.68-125.2,7.6-51.29,1.6-101.28-13.39-150.51-1-3.32-2-6.66-3.67-12.35,4.18,2.86,6.4,4.07,8.25,5.7,64.77,56.91,102.3,128.33,114.58,213.54,10.26,71.25-5,137.53-38,200.34-18,34.22-37.33,67.73-55.66,101.78-21.88,40.61-38.93,82.92-45.33,129.09-4.19,30.25-1.84,60.23,2,90.19C257.33,782.13,261.1,805,264.75,829.73Z"/><path class="cls-1" d="M416.34,137.46c165.81,203.28,121.16,521.8-99,663.54-9.76-37.22-14.15-74.65-11.35-112.86,4.18-56.94,26.38-107.7,53.23-157,20.23-37.1,41.55-73.72,59.62-111.87,42.55-89.85,39.58-180.73,1.86-271.5C419.62,145.22,418.53,142.65,416.34,137.46Z"/><path class="cls-1" d="M1700.55,366.65c-1.37-16.57-1-33.53-4.45-49.65-9.94-46-64.95-75.25-109.92-49.53-10.47,6-20.14,13.37-30.87,20.59l-29.68-43.88c.62-1.3.8-2.43,1.46-3,39.66-32.42,83.64-48.46,134.26-30.93,50.38,17.45,80.48,53.51,89.92,106.19,1.32,7.36,1.15,15,1.15,22.58q.11,132.95,0,265.9c0,3.19-.3,6.38-.49,10.15h-46.33c-1.72-11.36-3.42-22.55-5.12-33.76-1.09.15-2,0-2.28.35-23.54,34.29-57.86,43.21-96.07,37.37-67.27-10.28-113.47-66-113.4-134.07,0-15.06-.4-30.32,1.69-45.16,9.59-68.09,71.81-118.12,140.07-112.36,28.26,2.39,52.5,13.57,67.21,40Zm-1.75,110c0-8.85,0-17.7,0-26.55-.09-33.94-16.16-55.64-48.43-65.38-49.45-14.94-96.85,9.87-105.42,57.59-3.58,19.93-3.12,41.43,0,61.52,4.75,30.61,24.07,51.6,54.24,59.76,31.42,8.5,60.44,1.79,85-20.15,10.29-9.18,14.41-21.65,14.58-35.33C1698.89,497.64,1698.79,487.15,1698.8,476.67Z"/><path class="cls-1" d="M1232.14,458.72c-5.7,44.94,4.27,77,39.6,97,28.72,16.26,74.71,15.2,113.65-29.87l44.14,31.41c-24.54,34.17-57,53.18-97.36,60.12-62.81,10.8-125.83-24.59-147.06-84.18a125.14,125.14,0,0,1-7.52-39.28c-.84-54.44-1.07-108.92-.2-163.37,1-65.61,56-122.87,119.27-127.64,78.65-5.94,134.7,52.11,142.82,112.58,9.4,70-35.76,132.17-105.81,140.82-28.15,3.47-56.93,1.78-85.43,2.4C1243,458.82,1237.8,458.72,1232.14,458.72Zm45.34-45.88v-.54c12.79,0,25.63.76,38.35-.14,40.62-2.87,71.1-37.21,70.72-78.94-.37-40.44-31.76-73.61-71.72-75.8-42.43-2.32-79,26.38-82.58,67.36-2.37,27-1,54.38-1.53,81.58-.1,5.49,2.83,6.55,7.4,6.52C1251.24,412.78,1264.36,412.84,1277.48,412.84Z"/><path class="cls-1" d="M934,561h212.87v54.71h-11.8q-103.87.07-207.74.16c-27,0-49.16-20.51-49.19-47.13q-.27-271.29-.1-542.57c0-1.6.26-3.21.45-5.47H934Z"/><path class="cls-1" d="M792,207.81c.18,4,.48,7.47.48,11q0,192.87.23,385.73c0,9.31-2.8,11.9-11.67,11.36-11.44-.71-23-.37-34.43-.1-5.4.13-8.07-1.65-7.59-7.28.14-1.63,0-3.28,0-4.92q0-191.88,0-383.77c0-3.84.32-7.69.51-12Z"/><path class="cls-1" d="M765.92,177.48c-19.6.18-35-14.76-35.38-34.43-.45-20.56,14.26-36.36,34.11-36.63,21.28-.3,37.75,15,38,35.36C803,161.25,786.45,177.28,765.92,177.48Z"/><path class="cls-1" d="M746,781.67l14.1-1.23a31,31,0,0,0,4.66,13.9q3.66,5.43,11.36,8.78a43.06,43.06,0,0,0,17.33,3.35,41.57,41.57,0,0,0,15.09-2.54q6.56-2.55,9.75-7a16.18,16.18,0,0,0,3.19-9.67,14.67,14.67,0,0,0-3.08-9.28q-3.07-4-10.16-6.66-4.54-1.77-20.11-5.51t-21.79-7.05a30.48,30.48,0,0,1-12.06-10.51,25.79,25.79,0,0,1-4-14.06,28.66,28.66,0,0,1,4.85-16A30.07,30.07,0,0,1,769.35,707a53.71,53.71,0,0,1,20.72-3.85,56.5,56.5,0,0,1,22.14,4A32,32,0,0,1,827,719.05a34.23,34.23,0,0,1,5.55,17.79l-14.33,1.08q-1.15-10.71-7.82-16.17t-19.68-5.47q-13.54,0-19.75,5t-6.2,12a12.81,12.81,0,0,0,4.39,10q4.3,3.93,22.53,8t25,7.2Q826.5,763,831.2,770a28.08,28.08,0,0,1,4.7,16.06,30.69,30.69,0,0,1-5.16,17,34,34,0,0,1-14.83,12.4,51.72,51.72,0,0,1-21.76,4.43q-15.33,0-25.69-4.47A35.91,35.91,0,0,1,752.21,802,38.1,38.1,0,0,1,746,781.67Z"/><path class="cls-1" d="M849.37,777.05q0-22.72,12.64-33.66,10.54-9.09,25.72-9.09,16.88,0,27.58,11.05T926,775.89q0,15.79-4.74,24.84a33.47,33.47,0,0,1-13.78,14.06,40.24,40.24,0,0,1-19.76,5q-17.18,0-27.76-11T849.37,777.05Zm14.25,0q0,15.71,6.86,23.53a22.84,22.84,0,0,0,34.43,0q6.86-7.86,6.85-24,0-15.17-6.89-23a22.86,22.86,0,0,0-34.39,0Q863.63,761.33,863.62,777.05Z"/><path class="cls-1" d="M942,818V705h13.87V818Z"/><path class="cls-1" d="M1030.91,818v-12q-9.54,13.86-26,13.86A33.07,33.07,0,0,1,991.44,817a22.24,22.24,0,0,1-9.32-7,26,26,0,0,1-4.27-10.28,69.91,69.91,0,0,1-.85-12.94V736.15h13.86v45.36q0,10.86.85,14.64a14.42,14.42,0,0,0,5.55,8.59,17.15,17.15,0,0,0,10.47,3.12,22.85,22.85,0,0,0,11.71-3.2,17.82,17.82,0,0,0,7.74-8.7q2.27-5.51,2.27-16V736.15h13.86V818Z"/><path class="cls-1" d="M1095.3,805.54l2,12.25a51.63,51.63,0,0,1-10.48,1.23q-7.55,0-11.71-2.38a13.39,13.39,0,0,1-5.85-6.28q-1.69-3.89-1.69-16.37V746.93h-10.17V736.15h10.17V715.89l13.78-8.32v28.58h13.94v10.78h-13.94v47.83q0,5.94.74,7.63a5.69,5.69,0,0,0,2.38,2.69,9.21,9.21,0,0,0,4.74,1A44.9,44.9,0,0,0,1095.3,805.54Z"/><path class="cls-1" d="M1108.94,721V705h13.86v16Zm0,97v-81.8h13.86V818Z"/><path class="cls-1" d="M1138.74,777.05q0-22.72,12.64-33.66,10.55-9.09,25.72-9.09,16.88,0,27.57,11.05t10.71,30.54q0,15.79-4.74,24.84a33.47,33.47,0,0,1-13.78,14.06,40.24,40.24,0,0,1-19.76,5q-17.17,0-27.77-11T1138.74,777.05Zm14.25,0q0,15.71,6.86,23.53a22.84,22.84,0,0,0,34.43,0q6.85-7.86,6.85-24,0-15.17-6.89-23a22.86,22.86,0,0,0-34.39,0Q1153,761.33,1153,777.05Z"/><path class="cls-1" d="M1231.63,818v-81.8h12.48v11.63q9-13.49,26-13.48a34.23,34.23,0,0,1,13.6,2.66,21.39,21.39,0,0,1,9.28,7,26.76,26.76,0,0,1,4.31,10.24,79.79,79.79,0,0,1,.77,13.48V818h-13.86V768.19q0-8.48-1.62-12.67a13.32,13.32,0,0,0-5.74-6.7,18.24,18.24,0,0,0-9.66-2.5,22.43,22.43,0,0,0-15.29,5.62q-6.43,5.63-6.43,21.33V818Z"/><path class="cls-1" d="M1313.81,793.53l13.71-2.16q1.15,8.25,6.43,12.63t14.75,4.39q9.55,0,14.18-3.88t4.62-9.13a8.44,8.44,0,0,0-4.08-7.4q-2.87-1.85-14.18-4.69-15.24-3.85-21.14-6.67a20.34,20.34,0,0,1-8.93-7.78,20.59,20.59,0,0,1-3.05-11,21.06,21.06,0,0,1,2.51-10.13,22.33,22.33,0,0,1,6.81-7.74,28.6,28.6,0,0,1,8.82-4,41.74,41.74,0,0,1,12-1.66,47.36,47.36,0,0,1,16.91,2.77q7.27,2.77,10.74,7.51t4.78,12.67l-13.56,1.85a14.85,14.85,0,0,0-5.35-9.86q-4.44-3.54-12.52-3.54-9.56,0-13.63,3.16c-2.72,2.1-4.08,4.57-4.08,7.39a7.62,7.62,0,0,0,1.69,4.85,12.18,12.18,0,0,0,5.31,3.7c1.39.51,5.47,1.7,12.25,3.54q14.71,3.93,20.53,6.43a20.83,20.83,0,0,1,9.12,7.28,20.32,20.32,0,0,1,3.32,11.86,23.24,23.24,0,0,1-4,13.06,26.06,26.06,0,0,1-11.67,9.47,42.34,42.34,0,0,1-17.25,3.35q-15.94,0-24.3-6.62T1313.81,793.53Z"/><path class="cls-1" d="M1443.83,818V705h42.59a102.63,102.63,0,0,1,17.17,1.08,33.8,33.8,0,0,1,13.94,5.28,27.6,27.6,0,0,1,9,10.89,34.56,34.56,0,0,1,3.43,15.41q0,14.4-9.16,24.38t-33.12,10h-29V818Zm14.94-59.23H1488q14.47,0,20.56-5.4t6.09-15.17A20.46,20.46,0,0,0,1511,726a16.79,16.79,0,0,0-9.44-6.66q-3.78-1-13.94-1h-28.88Z"/><path class="cls-1" d="M1570,818l-31.12-81.8h14.63l17.56,49q2.85,7.93,5.24,16.49,1.85-6.48,5.16-15.56l18.18-49.91h14.25l-31,81.8Z"/><path class="cls-1" d="M1656.4,805.54l2,12.25a51.63,51.63,0,0,1-10.48,1.23q-7.54,0-11.71-2.38a13.39,13.39,0,0,1-5.85-6.28q-1.69-3.89-1.69-16.37V746.93h-10.17V736.15h10.17V715.89l13.78-8.32v28.58h13.94v10.78h-13.94v47.83c0,4,.25,6.5.73,7.63a5.76,5.76,0,0,0,2.39,2.69,9.21,9.21,0,0,0,4.74,1A44.9,44.9,0,0,0,1656.4,805.54Z"/><path class="cls-1" d="M1673.89,818V802.16h15.79V818Z"/><path class="cls-1" d="M1714.94,818V705h14.94v99.59h55.61V818Z"/><path class="cls-1" d="M1831.78,805.54l2,12.25a51.46,51.46,0,0,1-10.47,1.23q-7.55,0-11.71-2.38a13.39,13.39,0,0,1-5.85-6.28q-1.7-3.89-1.7-16.37V746.93h-10.16V736.15h10.16V715.89l13.79-8.32v28.58h13.94v10.78h-13.94v47.83q0,5.94.73,7.63a5.71,5.71,0,0,0,2.39,2.69,9.19,9.19,0,0,0,4.74,1A45,45,0,0,0,1831.78,805.54Z"/><path class="cls-1" d="M1898.4,818V807.62q-7.77,12.18-22.87,12.17a32.05,32.05,0,0,1-18-5.39,35.42,35.42,0,0,1-12.7-15.06,51.93,51.93,0,0,1-4.51-22.22,58.2,58.2,0,0,1,4.08-22.22,32.25,32.25,0,0,1,12.25-15.29,32.76,32.76,0,0,1,18.25-5.31,27.28,27.28,0,0,1,22.57,11.25V705h13.79V818Zm-43.82-40.83q0,15.72,6.62,23.5t15.64,7.77q9.09,0,15.44-7.43t6.36-22.68q0-16.78-6.47-24.65t-16-7.85a19.2,19.2,0,0,0-15.44,7.54Q1854.59,760.88,1854.58,777.12Z"/><path class="cls-1" d="M1937,818V802.16h15.79V818Z"/></svg>